<svg xmlns="http://www.w3.org/2000/svg" width="16" height="19.951" viewBox="0 0 16 19.951"><path d="M8,19.951A4.009,4.009,0,0,1,4.14,17H1a1,1,0,0,1-1-1V14A3.007,3.007,0,0,1,2,11.18V8A5.987,5.987,0,0,1,7,2.09V1A1,1,0,1,1,9,1V2.09A5.987,5.987,0,0,1,14,8v3.18A3.008,3.008,0,0,1,16,14v2a1,1,0,0,1-1,1H11.86A4.009,4.009,0,0,1,8,19.951ZM6.28,17a1.979,1.979,0,0,0,3.44,0ZM3,13a1,1,0,0,0-1,1v1H14V14a1,1,0,0,0-1-1ZM8,4A4.005,4.005,0,0,0,4,8v3h8V8A4,4,0,0,0,8,4Z" transform="translate(0 0)" fill="#42526e"/></svg>