<svg width="24" height="23" viewBox="0 0 24 23" fill="none" xmlns="http://www.w3.org/2000/svg">
<g filter="url(#filter0_b_34_1214)">
<path d="M18.5001 22.5252H4.4997C2.84566 22.5252 1.5 21.1791 1.5 19.5246V11.5245C1.5 9.87041 2.84566 8.52475 4.4997 8.52475H5.7804L6.0999 7.52485C6.50897 6.30126 7.65044 5.47735 8.9403 5.47465H14.4996C15.0514 5.47465 15.5004 5.9232 15.5004 6.47455C15.5004 7.0259 15.0514 7.47445 14.4996 7.47445H8.9898C8.55932 7.47445 8.17775 7.74788 8.0403 8.15485L7.5003 9.79465C7.36323 10.2024 6.98251 10.4764 6.55291 10.4764C6.53545 10.4764 6.51799 10.476 6.5004 10.4751H4.4997C3.94835 10.4751 3.4998 10.9236 3.4998 11.475V19.4751C3.4998 20.0264 3.94835 20.475 4.4997 20.475H18.5001C19.0515 20.475 19.5 20.0264 19.5 19.4751V12.4749C19.5 11.9235 19.9486 11.475 20.4999 11.475C20.7734 11.475 21.0378 11.5881 21.2253 11.7855C21.4132 11.9823 21.5132 12.2519 21.4998 12.5253V19.5246C21.4998 21.1791 20.1541 22.5252 18.5001 22.5252ZM11.4999 18.4752C9.29451 18.4752 7.5003 16.6805 7.5003 14.4747C7.5003 12.2693 9.29451 10.4751 11.4999 10.4751C12.5684 10.4751 13.573 10.8912 14.3286 11.6469C15.0842 12.4025 15.5004 13.4068 15.5004 14.4747C15.5004 16.6805 13.7058 18.4752 11.4999 18.4752ZM11.4999 12.4749C10.3972 12.4749 9.5001 13.372 9.5001 14.4747C9.5001 15.5773 10.3972 16.4745 11.4999 16.4745C12.6026 16.4745 13.4997 15.5773 13.4997 14.4747C13.4997 13.372 12.6026 12.4749 11.4999 12.4749ZM20.4999 9.47515C19.9486 9.47515 19.5 9.0266 19.5 8.47525V7.47445H18.5001C17.9488 7.47445 17.5002 7.0259 17.5002 6.47455C17.5002 5.9232 17.9488 5.47465 18.5001 5.47465H19.5V4.47475C19.5 3.9234 19.9486 3.47485 20.4999 3.47485C21.0513 3.47485 21.4998 3.9234 21.4998 4.47475V5.47465H22.4997C23.0511 5.47465 23.4996 5.9232 23.4996 6.47455C23.4996 7.0259 23.0511 7.47445 22.4997 7.47445H21.4998V8.47525C21.4998 9.0266 21.0513 9.47515 20.4999 9.47515Z" fill="#018FFA"/>
</g>
<defs>
<filter id="filter0_b_34_1214" x="-3.5" y="-1.52515" width="31.9995" height="29.0503" filterUnits="userSpaceOnUse" color-interpolation-filters="sRGB">
<feFlood flood-opacity="0" result="BackgroundImageFix"/>
<feGaussianBlur in="BackgroundImageFix" stdDeviation="2.5"/>
<feComposite in2="SourceAlpha" operator="in" result="effect1_backgroundBlur_34_1214"/>
<feBlend mode="normal" in="SourceGraphic" in2="effect1_backgroundBlur_34_1214" result="shape"/>
</filter>
</defs>
</svg>
