<svg width="22" height="23" viewBox="0 0 22 23" fill="none" xmlns="http://www.w3.org/2000/svg">
<g filter="url(#filter0_b_34_1212)">
<path d="M11.9999 22.4998C6.48594 22.4998 2 18.0139 2 12.4999C2 6.98594 6.48594 2.5 11.9999 2.5C14.6705 2.5 17.1818 3.54006 19.0712 5.4286C20.9597 7.31713 21.9998 9.82843 21.9998 12.4999C21.9998 18.0139 17.5139 22.4998 11.9999 22.4998ZM11.9999 4.4998C7.58863 4.4998 3.9998 8.08863 3.9998 12.4999C3.9998 16.9112 7.58863 20.5 11.9999 20.5C14.1365 20.5 16.1457 19.668 17.6573 18.1573C19.168 16.6457 20 14.6365 20 12.4999C20 8.08863 16.4112 4.4998 11.9999 4.4998ZM10.4235 16C10.1578 16 9.90799 15.8971 9.7202 15.7102L7.3703 13.3504C7.08313 13.104 6.95965 12.7232 7.0481 12.3568C7.13673 11.9896 7.41985 11.7065 7.787 11.6179C7.86316 11.5997 7.94144 11.5904 8.01966 11.5904C8.3127 11.5904 8.58972 11.7179 8.7797 11.9401L10.4303 13.5898L14.7197 9.2896C14.9086 9.10243 15.1592 8.99935 15.4252 8.99935C15.6912 8.99935 15.9415 9.10243 16.13 9.2896C16.3182 9.47688 16.4261 9.7357 16.4261 9.9997C16.4261 10.2646 16.3182 10.5234 16.13 10.7098L11.1296 15.7102C10.9418 15.8962 10.6935 15.9991 10.4303 16L10.4235 16Z" fill="#12AF41"/>
</g>
<defs>
<filter id="filter0_b_34_1212" x="-3" y="-2.5" width="30" height="29.9998" filterUnits="userSpaceOnUse" color-interpolation-filters="sRGB">
<feFlood flood-opacity="0" result="BackgroundImageFix"/>
<feGaussianBlur in="BackgroundImageFix" stdDeviation="2.5"/>
<feComposite in2="SourceAlpha" operator="in" result="effect1_backgroundBlur_34_1212"/>
<feBlend mode="normal" in="SourceGraphic" in2="effect1_backgroundBlur_34_1212" result="shape"/>
</filter>
</defs>
</svg>
