<svg xmlns="http://www.w3.org/2000/svg" width="19.5" height="19.5" viewBox="0 0 19.5 19.5"><path d="M9.75,19.5a2.75,2.75,0,1,1,2.75-2.75A2.753,2.753,0,0,1,9.75,19.5Zm0-4a1.25,1.25,0,1,0,.478.1A1.243,1.243,0,0,0,9.75,15.5Zm7-3A2.75,2.75,0,1,1,19.5,9.75,2.753,2.753,0,0,1,16.75,12.5Zm0-4a1.25,1.25,0,1,0,.478.1A1.243,1.243,0,0,0,16.751,8.5Zm-7,4A2.75,2.75,0,1,1,12.5,9.75,2.753,2.753,0,0,1,9.75,12.5Zm0-4A1.25,1.25,0,1,0,11,9.75,1.252,1.252,0,0,0,9.75,8.5Zm-7,4A2.75,2.75,0,1,1,5.5,9.75,2.754,2.754,0,0,1,2.75,12.5Zm0-4A1.25,1.25,0,1,0,4,9.75,1.252,1.252,0,0,0,2.75,8.5Zm14-3A2.75,2.75,0,1,1,19.5,2.75,2.753,2.753,0,0,1,16.75,5.5Zm0-4A1.25,1.25,0,1,0,18,2.75,1.252,1.252,0,0,0,16.75,1.5Zm-7,4A2.75,2.75,0,1,1,12.5,2.75,2.753,2.753,0,0,1,9.75,5.5Zm0-4A1.25,1.25,0,1,0,11,2.75,1.252,1.252,0,0,0,9.75,1.5Zm-7,4A2.75,2.75,0,1,1,5.5,2.75,2.753,2.753,0,0,1,2.75,5.5Zm0-4A1.251,1.251,0,1,0,4,2.75,1.252,1.252,0,0,0,2.75,1.5Z" transform="translate(0 0)" fill="#42526e"/></svg>