<svg width="47" height="47" viewBox="0 0 47 47" fill="none" xmlns="http://www.w3.org/2000/svg">
<path d="M23.7287 34.7154H22.2078C21.0834 34.7154 20.0352 34.2123 19.3319 33.335L17.448 30.9848C16.6829 30.0585 15.3425 28.0981 15.152 26.6024L14.9999 25.4095C14.9196 24.7798 14.7349 24.1724 14.451 23.6046L14.3035 23.3096C13.8054 22.3131 13.542 21.1977 13.542 20.0837V15.1411C13.542 9.81491 17.8752 5.48181 23.2014 5.48181C28.5276 5.48181 32.8608 9.81491 32.8608 15.1411V19.8637C32.8608 21.1395 32.5211 22.3962 31.8784 23.4981C31.4957 24.154 31.2529 24.8685 31.1569 25.6218L31.032 26.6024C30.8381 28.1237 29.4671 30.157 28.593 31.1527C28.5901 31.1559 28.5872 31.1591 28.5844 31.1623L26.4588 33.5058C25.7616 34.2746 24.7665 34.7154 23.7287 34.7154ZM23.2014 7.0683C18.75 7.0683 15.1285 10.6897 15.1285 15.1411V20.0837C15.1285 20.9527 15.3339 21.8228 15.7225 22.6L15.87 22.895C16.2341 23.6231 16.4708 24.4015 16.5737 25.2089L16.7258 26.4018C16.8525 27.3964 17.9417 29.0921 18.6746 29.9785C18.6771 29.9817 18.6797 29.9848 18.6822 29.9879L20.5698 32.3427C20.9703 32.8423 21.5673 33.129 22.2078 33.129H23.7287C24.3198 33.129 24.8866 32.8779 25.2838 32.44L27.4049 30.1012C28.296 29.0849 29.3331 27.3837 29.4582 26.4018L29.5831 25.4212C29.7062 24.4556 30.0174 23.5396 30.5079 22.6987C31.0092 21.8391 31.2743 20.8588 31.2743 19.8637V15.1411C31.2743 10.6897 27.6528 7.0683 23.2014 7.0683Z" fill="#018FFA"/>
<path d="M11.3629 40.8087C11.0828 40.8087 10.8113 40.6601 10.667 40.3972C10.4561 40.0132 10.5963 39.531 10.9804 39.3201L16.7723 36.1384L17.2206 30.9234C17.2582 30.4868 17.6439 30.1641 18.0788 30.201C18.5153 30.2386 18.8388 30.6228 18.8013 31.0592L18.3167 36.6971C18.2939 36.9614 18.1407 37.1967 17.9082 37.3245L11.7441 40.7106C11.623 40.7771 11.4921 40.8087 11.3629 40.8087Z" fill="#018FFA"/>
<path d="M34.6444 40.8087C34.5154 40.8087 34.3844 40.7771 34.2632 40.7105L28.0992 37.3244C27.8667 37.1967 27.7135 36.9614 27.6908 36.697L27.2061 31.0593C27.1686 30.6228 27.492 30.2385 27.9285 30.201C28.3647 30.1642 28.7492 30.487 28.7868 30.9234L29.235 36.1383L35.0271 39.32C35.4109 39.531 35.5513 40.0133 35.3404 40.3972C35.196 40.66 34.9245 40.8087 34.6444 40.8087Z" fill="#018FFA"/>
<path d="M45.2146 46.1491H37.5735C37.1354 46.1491 36.7803 45.7939 36.7803 45.3558C36.7803 44.9178 37.1354 44.5626 37.5735 44.5626H44.4213V37.7149C44.4213 37.2768 44.7765 36.9216 45.2146 36.9216C45.6526 36.9216 46.0078 37.2768 46.0078 37.7149V45.3558C46.0078 45.7939 45.6526 46.1491 45.2146 46.1491Z" fill="#018FFA"/>
<path d="M8.43427 46.1491H0.793274C0.355133 46.1491 0 45.7939 0 45.3558V37.7149C0 37.2768 0.355133 36.9216 0.793274 36.9216C1.23135 36.9216 1.58649 37.2768 1.58649 37.7149V44.5626H8.43427C8.87234 44.5626 9.22754 44.9178 9.22754 45.3558C9.22754 45.7939 8.87234 46.1491 8.43427 46.1491Z" fill="#018FFA"/>
<path d="M0.793274 9.36873C0.355133 9.36873 0 9.01358 0 8.57549V0.934464C0 0.496399 0.355133 0.141235 0.793274 0.141235H8.43427C8.87234 0.141235 9.22754 0.496399 9.22754 0.934464C9.22754 1.37256 8.87234 1.72772 8.43427 1.72772H1.58649V8.57549C1.58649 9.01358 1.23135 9.36873 0.793274 9.36873Z" fill="#018FFA"/>
<path d="M45.2146 9.36873C44.7765 9.36873 44.4213 9.01358 44.4213 8.57549V1.72772H37.5735C37.1354 1.72772 36.7803 1.37256 36.7803 0.934464C36.7803 0.496399 37.1354 0.141235 37.5735 0.141235H45.2146C45.6526 0.141235 46.0078 0.496399 46.0078 0.934464V8.57549C46.0078 9.01358 45.6526 9.36873 45.2146 9.36873Z" fill="#018FFA"/>
</svg>
