<svg width="47" height="48" viewBox="0 0 47 48" fill="none" xmlns="http://www.w3.org/2000/svg">
<path d="M45.7316 47.0255H38.0834C37.6449 47.0255 37.2896 46.6701 37.2896 46.2315C37.2896 45.7929 37.6449 45.4375 38.0834 45.4375H44.9375V38.5835C44.9375 38.1449 45.293 37.7894 45.7316 37.7894C46.1702 37.7894 46.5256 38.1449 46.5256 38.5835V46.2315C46.5256 46.6701 46.1702 47.0255 45.7316 47.0255Z" fill="#018FFA"/>
<path d="M8.91675 47.0255H1.26868C0.830078 47.0255 0.474609 46.6701 0.474609 46.2315V38.5835C0.474609 38.1449 0.830078 37.7894 1.26868 37.7894C1.70728 37.7894 2.06262 38.1449 2.06262 38.5835V45.4375H8.91675C9.35522 45.4375 9.71069 45.7929 9.71069 46.2315C9.71069 46.6701 9.35522 47.0255 8.91675 47.0255Z" fill="#018FFA"/>
<path d="M1.26868 10.2106C0.830078 10.2106 0.474609 9.85513 0.474609 9.4166V1.76852C0.474609 1.32996 0.830078 0.974487 1.26868 0.974487H8.91675C9.35522 0.974487 9.71069 1.32996 9.71069 1.76852C9.71069 2.20709 9.35522 2.56256 8.91675 2.56256H2.06262V9.4166C2.06262 9.85513 1.70728 10.2106 1.26868 10.2106Z" fill="#018FFA"/>
<path d="M45.7316 10.2106C45.293 10.2106 44.9375 9.85513 44.9375 9.4166V2.56256H38.0834C37.6449 2.56256 37.2896 2.20709 37.2896 1.76852C37.2896 1.32996 37.6449 0.974487 38.0834 0.974487H45.7316C46.1702 0.974487 46.5256 1.32996 46.5256 1.76852V9.4166C46.5256 9.85513 46.1702 10.2106 45.7316 10.2106Z" fill="#018FFA"/>
<path d="M12.5536 41.6801C12.4043 41.6801 12.2538 41.6384 12.1198 41.5506C11.7527 41.3106 11.6498 40.8184 11.8899 40.4515L15.4401 35.0224C15.8671 34.0525 16.0132 32.9869 15.8628 31.9367L15.4303 28.9189C15.3152 28.1145 15.1535 27.5478 14.9051 27.0812C14.0592 25.4913 11.4279 19.9109 13.0678 14.8672C13.9582 12.1297 15.9395 9.9962 18.9569 8.52653C23.0248 6.54524 27.1651 6.64241 30.6157 8.79961C34.0799 10.9658 35.8925 14.5107 35.8925 16.8931C35.8925 20.4646 36.2638 21.523 37.5409 23.3075C37.5583 23.3316 37.5741 23.3568 37.5885 23.3827C37.6601 23.5108 38.2707 24.6617 37.6687 25.5658C37.4352 25.9173 37.0783 26.1504 36.6027 26.2637L37.0923 27.2805C37.2676 27.6438 37.1419 28.081 36.8013 28.2961L35.9832 28.8131L36.3509 29.1661C36.6668 29.4697 36.6771 29.9723 36.3736 30.2886L35.2578 31.451C35.4813 32.1378 35.6507 33.3319 34.7376 34.4533C33.2467 36.2845 28.6859 36.2112 23.9175 32.9005C23.5573 32.6501 23.468 32.1554 23.718 31.7953C23.9683 31.4351 24.4633 31.3459 24.8234 31.596C29.0985 34.5645 32.7484 34.3814 33.5061 33.4506C34.1537 32.6555 33.6912 31.7676 33.6359 31.669C33.4575 31.3628 33.5077 30.9819 33.753 30.7261L34.6782 29.7618L34.152 29.2564C33.976 29.0873 33.8875 28.8466 33.9119 28.6037C33.9364 28.3609 34.0713 28.1425 34.2779 28.0123L35.3546 27.3319L34.6483 25.8652C34.5229 25.6047 34.5492 25.2967 34.7163 25.0611C34.8836 24.8254 35.1658 24.6991 35.4525 24.7315C36.0641 24.8002 36.2904 24.7099 36.3444 24.6815C36.3605 24.5804 36.2929 24.3379 36.2184 24.1886C34.5822 21.8875 34.3048 20.3387 34.3048 16.8931C34.3048 14.969 32.6099 11.9192 29.7738 10.1463C27.6731 8.83272 24.2117 7.73326 19.652 9.95409C17.0371 11.2281 15.33 13.046 14.5781 15.3579C13.1314 19.8069 15.5359 24.8851 16.307 26.3357C16.7407 27.151 16.9064 28.0242 17.0021 28.6936L17.4347 31.7115C17.631 33.0808 17.4333 34.4709 16.8627 35.7316C16.8461 35.7687 16.8263 35.8046 16.8039 35.8388L13.2188 41.3207C13.0662 41.5535 12.8126 41.6801 12.5536 41.6801Z" fill="#018FFA"/>
<path d="M29.7535 41.68C29.5571 41.68 29.3603 41.6073 29.2068 41.4612C29.1733 41.4292 28.3735 40.6665 27.6057 39.7455C26.3821 38.2772 25.9436 37.2738 26.1847 36.4921L26.8966 34.1823C27.0259 33.7632 27.471 33.5282 27.8891 33.6574C28.3083 33.7866 28.5432 34.2309 28.4142 34.65L27.7097 36.936C27.7165 37.4196 28.9422 39.0173 30.3011 40.3107C30.6187 40.6129 30.6313 41.1155 30.3292 41.4332C30.1731 41.5972 29.9636 41.68 29.7535 41.68Z" fill="#018FFA"/>
<path d="M34.7022 29.4777L34.6809 29.4773L33.3594 29.4428C32.9212 29.4313 32.5752 29.0664 32.5867 28.6279C32.5982 28.1897 32.9624 27.8443 33.4014 27.8551L34.7224 27.89C35.1607 27.9015 35.5069 28.266 35.4954 28.7045C35.4839 29.1355 35.1309 29.4777 34.7022 29.4777Z" fill="#018FFA"/>
<path d="M35.3642 26.3148C35.3006 26.3148 35.2362 26.3069 35.1713 26.2911L34.0086 26.0011C33.5831 25.895 33.3243 25.464 33.4306 25.0387C33.5366 24.6131 33.9672 24.3541 34.3928 24.4602L35.5557 24.7502C35.9813 24.8563 36.2403 25.2873 36.1341 25.7126C36.0439 26.0738 35.7199 26.3148 35.3642 26.3148Z" fill="#018FFA"/>
</svg>
