<svg xmlns="http://www.w3.org/2000/svg" width="19.88" height="19.85" viewBox="0 0 19.88 19.85"><path d="M9.87,19.85c-.161,0-.325-.013-.483-.025S9.074,19.8,8.92,19.8H8.59l-.6-.09L7.6,19.62l-.509-.13-.4-.131-.239-.07H6.4A9.989,9.989,0,0,1,.51,13.41a.46.46,0,0,0,0-.07A2.218,2.218,0,0,0,.44,13.1c-.051-.132-.081-.233-.131-.4C.3,12.653.28,12.6.264,12.559A1.183,1.183,0,0,1,.18,12.19L.09,11.8,0,11.2V8.64l.09-.6.09-.39c.042-.18.091-.375.13-.51a1.309,1.309,0,0,1,.059-.153A.646.646,0,0,0,.44,6.74,2.177,2.177,0,0,0,.51,6.5V6.45A10.1,10.1,0,0,1,6.41.55h.05L6.69.48,7.11.35,7.2.32A1.167,1.167,0,0,1,7.57.23l.46-.1L8.49.06A1.287,1.287,0,0,1,8.97,0h.91l.509.08a1.523,1.523,0,0,0,.172-.013,1.551,1.551,0,0,1,.176-.014A.511.511,0,0,1,10.91.08a1.346,1.346,0,0,0,.481.06l.46.069.46.1c.048.013.1.03.145.047A1,1,0,0,0,12.77.43l.42.13.229.07h.05a10.1,10.1,0,0,1,5.9,5.9V6.58a2.3,2.3,0,0,0,.07.24c.05.13.081.231.13.4.014.046.029.092.045.138a1.185,1.185,0,0,1,.085.372l.09.39.09.6v.33a2.6,2.6,0,0,1-.044.428,2.669,2.669,0,0,0-.046.442c0,.161-.013.325-.025.483s-.025.314-.025.468V11.2l-.09.6-.09.39c-.043.184-.093.38-.13.51-.021.072-.05.156-.075.23s-.045.132-.055.171a.765.765,0,0,1-.03.089.433.433,0,0,0-.039.151.459.459,0,0,0,0,.07,9.993,9.993,0,0,1-5.891,5.88H13.29l-.24.07-.4.131-.51.13-.39.09-.6.09h-.33A5.966,5.966,0,0,1,9.87,19.85Zm-.76-4.9-1,2.86h.06l.111.027a2.1,2.1,0,0,0,.5.083H9.02a8.2,8.2,0,0,0,1.72,0h.24c.213-.032.406-.062.61-.11h-.02l-1-2.86a4.464,4.464,0,0,1-1.46,0Zm5.06-2.33a5.144,5.144,0,0,1-1.64,1.64l1,2.86v-.01a7.947,7.947,0,0,0,3.5-3.49ZM5.63,12.65l-2.86,1a7.951,7.951,0,0,0,3.46,3.46l1.04-2.82A5.163,5.163,0,0,1,5.63,12.65ZM9.88,7.014a2.751,2.751,0,0,0-.5.046l-.065.016c-.141.035-.287.072-.435.124A2.99,2.99,0,0,0,7.07,9a3.177,3.177,0,0,0-.131.49,2.623,2.623,0,0,0,0,1A3.145,3.145,0,0,0,7.08,11a2.986,2.986,0,0,0,1.84,1.81l.1.039a1.185,1.185,0,0,0,.4.1,2.746,2.746,0,0,0,1,0l.065-.016c.141-.035.287-.072.435-.124l-.04-.01a2.992,2.992,0,0,0,1.8-1.78,3.219,3.219,0,0,0,.139-.509,2.585,2.585,0,0,0,0-1A3.222,3.222,0,0,0,12.68,9a3,3,0,0,0-1.8-1.8l-.1-.039a1.185,1.185,0,0,0-.4-.1A2.751,2.751,0,0,0,9.88,7.014Zm7.9,1.3-2.86,1a4.464,4.464,0,0,1,0,1.461l2.86,1v-.06a4.232,4.232,0,0,0,.1-.6V10.94a7.443,7.443,0,0,0,0-1.721V8.97a4.234,4.234,0,0,0-.1-.6ZM2.07,8.23v.06a4.233,4.233,0,0,0-.1.6v.25a7.433,7.433,0,0,0,0,1.72v.249a4.234,4.234,0,0,0,.1.6v-.02l2.86-1a4.456,4.456,0,0,1,0-1.46ZM6.23,2.89a7.952,7.952,0,0,0-3.46,3.5l2.86,1A5.162,5.162,0,0,1,7.28,5.75l-1-2.86Zm7.35,0L12.54,5.71A5.171,5.171,0,0,1,14.18,7.35l2.859-1A7.956,7.956,0,0,0,13.58,2.89ZM8.83,2.08c-.213.032-.406.062-.61.11L8.15,2.2l1,2.86A4.327,4.327,0,0,1,9.864,5H9.88l.143,0a4.5,4.5,0,0,1,.677.052l1-2.86h-.06l-.111-.027a2.1,2.1,0,0,0-.5-.083h-.24a8.2,8.2,0,0,0-1.72,0Z" transform="translate(0 0)" fill="#42526e"/></svg>