<svg xmlns="http://www.w3.org/2000/svg" width="13.979" height="21.857" viewBox="0 0 13.979 21.857"><path d="M8.959,21.857a1,1,0,0,1-1-1v-1h-2v1a1,1,0,0,1-2,0v-1a2,2,0,0,1-2-2v-2a2.011,2.011,0,0,1,.61-1.4v-.29a4.788,4.788,0,0,0-1.08-2.86,7,7,0,0,1,4-11.15,7.09,7.09,0,0,1,5.92,1.4,7,7,0,0,1,1,9.83,4.271,4.271,0,0,0-1.02,2.64v.43a1.99,1.99,0,0,1,.57,1.4v2a2,2,0,0,1-2,2v1A1,1,0,0,1,8.959,21.857Zm-5-6v2h6v-2h-6Zm3-13.9a5.006,5.006,0,0,0-3.939,8.123,6.631,6.631,0,0,1,1.5,3.78h4.87a6.216,6.216,0,0,1,1.461-3.72A4.931,4.931,0,0,0,11.958,7a5,5,0,0,0-5-5.043Z" transform="translate(0.004 0)" fill="#42526e"/></svg>