<svg xmlns="http://www.w3.org/2000/svg" width="22" height="19.996" viewBox="0 0 22 19.996"><path d="M19,20H3a3,3,0,0,1-3-3v-8a3,3,0,0,1,3-3H7a1,1,0,1,1,0,2H3a1,1,0,0,0-1,1v8a1,1,0,0,0,1,1H19a1,1,0,0,0,1-1v-8a1,1,0,0,0-1-1H15a1,1,0,1,1,0-2h4a3,3,0,0,1,3,3v8A3,3,0,0,1,19,20Zm-8-4a3,3,0,1,1,3-3A3,3,0,0,1,11,15.995Zm0-4a1,1,0,1,0,1,1A1,1,0,0,0,11,12Zm6,2a1,1,0,1,1,1-1A1,1,0,0,1,17,14ZM5,14a1,1,0,1,1,1-1A1,1,0,0,1,5,14Zm6-6a1,1,0,0,1-1-1V3.4L9.46,4A1.032,1.032,0,0,1,8,2.535L10.29.285a1.007,1.007,0,0,1,.33-.211,1.032,1.032,0,0,1,1.09.211L14,2.575A1,1,0,0,1,14,4a1,1,0,0,1-.713.3h-.026a1,1,0,0,1-.722-.337L12,3.4v3.59A1,1,0,0,1,11,7.995Z" transform="translate(0 0)" fill="#42526e"/></svg>