<svg xmlns="http://www.w3.org/2000/svg" width="22" height="20" viewBox="0 0 22 20"><path d="M19,20H3a3,3,0,0,1-3-3V9A3,3,0,0,1,3,6H6A1,1,0,0,1,6,8H3A1,1,0,0,0,2,9v8a1,1,0,0,0,1,1H19a1,1,0,0,0,1-1V9a1,1,0,0,0-1-1H16a1,1,0,0,1,0-2h3a3,3,0,0,1,3,3v8A3,3,0,0,1,19,20Zm-8-4a3,3,0,1,1,3-3A3,3,0,0,1,11,16Zm0-4a1,1,0,1,0,1,1A1,1,0,0,0,11,12Zm6,2a1,1,0,1,1,1-1A1,1,0,0,1,17,14ZM5,14a1,1,0,1,1,1-1A1,1,0,0,1,5,14Zm6-6a.934.934,0,0,1-.38-.08,1.006,1.006,0,0,1-.33-.21L8,5.46A1.033,1.033,0,1,1,9.46,4l.54.59V1a1,1,0,1,1,2,0V4.59L12.54,4A1.033,1.033,0,0,1,14,5.46L11.71,7.71a1,1,0,0,1-.33.21A.929.929,0,0,1,11,8Z" transform="translate(0 0)" fill="#42526e"/></svg>