<svg width="17" height="15" viewBox="0 0 17 15" fill="none" xmlns="http://www.w3.org/2000/svg">
<g filter="url(#filter0_b_34_1205)">
<path d="M9.333 14.1669H0.999754C0.540296 14.1669 0.166504 13.7931 0.166504 13.3336C0.166504 12.8742 0.540296 12.5004 0.999754 12.5004H9.333C9.79246 12.5004 10.1663 12.8742 10.1663 13.3336C10.1663 13.7931 9.79246 14.1669 9.333 14.1669ZM15.9998 10.8331H0.999754C0.540296 10.8331 0.166504 10.4593 0.166504 9.99987C0.166504 9.54042 0.540296 9.16662 0.999754 9.16662H15.9998C16.4592 9.16662 16.833 9.54042 16.833 9.99987C16.833 10.4593 16.4592 10.8331 15.9998 10.8331ZM15.9998 7.50012H9.333C8.87355 7.50012 8.49975 7.12633 8.49975 6.66687C8.49975 6.20742 8.87355 5.83362 9.333 5.83362H15.9998C16.4592 5.83362 16.833 6.20742 16.833 6.66687C16.833 7.12633 16.4592 7.50012 15.9998 7.50012ZM6 7.50012H0.999754C0.540296 7.50012 0.166504 7.12633 0.166504 6.66687V1.66662C0.166504 1.20717 0.540296 0.833374 0.999754 0.833374H6C6.45946 0.833374 6.83325 1.20717 6.83325 1.66662V6.66687C6.83325 7.12633 6.45946 7.50012 6 7.50012ZM1.833 2.49987V5.83362H5.16675V2.49987H1.833ZM15.9998 4.16637H9.333C8.87355 4.16637 8.49975 3.79258 8.49975 3.33312C8.49975 2.87367 8.87355 2.49987 9.333 2.49987H15.9998C16.4592 2.49987 16.833 2.87367 16.833 3.33312C16.833 3.79258 16.4592 4.16637 15.9998 4.16637Z" fill="#018FFA"/>
</g>
<defs>
<filter id="filter0_b_34_1205" x="-4.8335" y="-4.16663" width="26.6665" height="23.3335" filterUnits="userSpaceOnUse" color-interpolation-filters="sRGB">
<feFlood flood-opacity="0" result="BackgroundImageFix"/>
<feGaussianBlur in="BackgroundImageFix" stdDeviation="2.5"/>
<feComposite in2="SourceAlpha" operator="in" result="effect1_backgroundBlur_34_1205"/>
<feBlend mode="normal" in="SourceGraphic" in2="effect1_backgroundBlur_34_1205" result="shape"/>
</filter>
</defs>
</svg>
