<svg xmlns="http://www.w3.org/2000/svg" width="22" height="22" viewBox="0 0 22 22"><path d="M19,22H15a1,1,0,1,1,0-2h4a1,1,0,0,0,1-1V15a1,1,0,1,1,2,0v4A3,3,0,0,1,19,22ZM7,22H3a3,3,0,0,1-3-3V15a1,1,0,0,1,2,0v4a1,1,0,0,0,1,1H7a1,1,0,1,1,0,2Zm10-4H16a1,1,0,1,1,0-2V13a1,1,0,1,1,2,0v4A1,1,0,0,1,17,18Zm-4,0a1,1,0,1,1,1-1A1,1,0,0,1,13,18ZM9,18H5a1,1,0,0,1-1-1V13a1,1,0,0,1,1-1H9a1,1,0,0,1,1,1v4A1,1,0,0,1,9,18ZM6,14v2H8V14Zm7,1a1,1,0,0,1-1-1V13a1,1,0,0,1,1-1h1a1,1,0,0,1,0,2A1,1,0,0,1,13,15Zm4-5H13a1,1,0,0,1-1-1V5a1,1,0,0,1,1-1h4a1,1,0,0,1,1,1V9A1,1,0,0,1,17,10ZM14,6V8h2V6ZM9,10H5A1,1,0,0,1,4,9V5A1,1,0,0,1,5,4H9a1,1,0,0,1,1,1V9A1,1,0,0,1,9,10ZM6,6V8H8V6ZM21,8a1,1,0,0,1-1-1V3a1,1,0,0,0-1-1H15a1,1,0,0,1,0-2h4a3,3,0,0,1,3,3V7A1,1,0,0,1,21,8ZM1,8A1,1,0,0,1,0,7V3A3,3,0,0,1,3,0H7A1,1,0,1,1,7,2H3A1,1,0,0,0,2,3V7A1,1,0,0,1,1,8Z" transform="translate(0 0)" fill="#42526e"/></svg>