<svg width="37" height="49" viewBox="0 0 37 49" fill="none" xmlns="http://www.w3.org/2000/svg">
<path d="M34.8916 44.1554C36.0966 45.8854 34.8386 48.2417 32.7065 48.2417H22.6104C21.9324 48.2417 21.2861 47.986 20.8015 47.5372V47.5319L19.8215 46.2455L13.7299 37.5929C11.4337 34.3286 12.0057 30.018 15.0754 27.4452L21.2093 22.3021L25.0523 26.4719V9.42497L9.37576 9.45107L12.8903 13.2685L3.49869 21.1383C2.63263 21.8638 1.47522 21.7542 0.733639 21.1305C0.293985 20.7626 0 20.2094 0 19.5466V2.60935C-1.26291e-07 1.16899 1.18654 0 2.64852 0H15.0039C28.3656 0 36.7588 6.82345 36.7588 17.8506C36.7588 24.948 33.2601 30.185 27.1764 33.0787L34.8916 44.1554Z" fill="white"/>
</svg>
