<svg width="48" height="48" viewBox="0 0 48 48" fill="none" xmlns="http://www.w3.org/2000/svg">
<path d="M1.76868 47.0255H9.41687C9.85535 47.0255 10.2107 46.67 10.2107 46.2315C10.2107 45.7929 9.85535 45.4375 9.41687 45.4375H2.56274V38.5835C2.56274 38.1449 2.20728 37.7894 1.76868 37.7894C1.33008 37.7894 0.974609 38.1449 0.974609 38.5835V46.2315C0.974609 46.67 1.33008 47.0255 1.76868 47.0255Z" fill="#018FFA"/>
<path d="M38.5835 47.0255H46.2316C46.6702 47.0255 47.0256 46.67 47.0256 46.2315V38.5835C47.0256 38.1449 46.6702 37.7894 46.2316 37.7894C45.793 37.7894 45.4376 38.1449 45.4376 38.5835V45.4375H38.5835C38.145 45.4375 37.7896 45.7929 37.7896 46.2315C37.7896 46.67 38.145 47.0255 38.5835 47.0255Z" fill="#018FFA"/>
<path d="M46.2316 10.2106C46.6702 10.2106 47.0256 9.85513 47.0256 9.4166V1.76852C47.0256 1.32996 46.6702 0.974487 46.2316 0.974487H38.5835C38.145 0.974487 37.7896 1.32996 37.7896 1.76852C37.7896 2.20709 38.145 2.56256 38.5835 2.56256H45.4376V9.4166C45.4376 9.85513 45.793 10.2106 46.2316 10.2106Z" fill="#018FFA"/>
<path d="M1.76868 10.2106C2.20728 10.2106 2.56274 9.85513 2.56274 9.4166V2.56256H9.41687C9.85535 2.56256 10.2107 2.20709 10.2107 1.76852C10.2107 1.32996 9.85535 0.974487 9.41687 0.974487H1.76868C1.33008 0.974487 0.974609 1.32996 0.974609 1.76852V9.4166C0.974609 9.85513 1.33008 10.2106 1.76868 10.2106Z" fill="#018FFA"/>
<path d="M34.9463 41.6801C35.0956 41.6801 35.2461 41.6383 35.3801 41.5506C35.7472 41.3106 35.8501 40.8184 35.61 40.4514L32.0598 35.0224C31.6328 34.0525 31.4867 32.9868 31.6371 31.9367L32.0696 28.9189C32.1847 28.1144 32.3464 27.5478 32.5948 27.0812C33.4406 25.4913 36.072 19.9108 34.4321 14.8672C33.5417 12.1297 31.5604 9.9962 28.5429 8.52653C24.4751 6.54524 20.3348 6.64241 16.8841 8.79961C13.42 10.9658 11.6074 14.5107 11.6074 16.8931C11.6074 20.4646 11.2361 21.523 9.95896 23.3075C9.94163 23.3316 9.92576 23.3568 9.91135 23.3827C9.83982 23.5108 9.22922 24.6617 9.83115 25.5658C10.0647 25.9173 10.4216 26.1504 10.8972 26.2637L10.4076 27.2805C10.2323 27.6438 10.358 28.0809 10.6986 28.2961L11.5167 28.8131L11.149 29.1661C10.8331 29.4697 10.8227 29.9723 11.1263 30.2885L12.242 31.451C12.0185 32.1378 11.8492 33.3319 12.7623 34.4533C14.2531 36.2845 18.8139 36.2111 23.5824 32.9005C23.9426 32.6501 24.0318 32.1554 23.7818 31.7952C23.5316 31.4351 23.0366 31.3459 22.6765 31.596C18.4013 34.5645 14.7514 34.3813 13.9937 33.4506C13.3462 32.6555 13.8087 31.7676 13.864 31.669C14.0423 31.3628 13.9922 30.9818 13.7469 30.726L12.8216 29.7618L13.3479 29.2563C13.5239 29.0872 13.6124 28.8466 13.588 28.6037C13.5635 28.3609 13.4286 28.1425 13.222 28.0123L12.1452 27.3319L12.8515 25.8651C12.977 25.6047 12.9507 25.2966 12.7835 25.061C12.6163 24.8254 12.3341 24.6991 12.0473 24.7315C11.4358 24.8002 11.2094 24.7099 11.1555 24.6815C11.1394 24.5804 11.207 24.3379 11.2815 24.1886C12.9177 21.8874 13.195 20.3386 13.195 16.8931C13.195 14.969 14.89 11.9192 17.726 10.1463C19.8268 8.83272 23.2882 7.73326 27.8479 9.95409C30.4627 11.2281 32.1699 13.046 32.9217 15.3579C34.3685 19.8069 31.964 24.8851 31.1928 26.3357C30.7591 27.1509 30.5935 28.0241 30.4978 28.6936L30.0652 31.7114C29.8689 33.0807 30.0666 34.4709 30.6372 35.7316C30.6538 35.7686 30.6736 35.8046 30.696 35.8388L34.2811 41.3206C34.4337 41.5534 34.6872 41.6801 34.9463 41.6801Z" fill="#018FFA"/>
<path d="M17.7465 41.68C17.9429 41.68 18.1396 41.6073 18.2932 41.4612C18.3267 41.4292 19.1265 40.6665 19.8943 39.7455C21.1179 38.2772 21.5564 37.2738 21.3153 36.4921L20.6034 34.1823C20.4741 33.7632 20.0289 33.5282 19.6108 33.6574C19.1916 33.7866 18.9568 34.2309 19.0858 34.65L19.7903 36.936C19.7834 37.4196 18.5577 39.0173 17.1988 40.3107C16.8812 40.6129 16.8686 41.1155 17.1708 41.4332C17.3269 41.5972 17.5364 41.68 17.7465 41.68Z" fill="#018FFA"/>
<path d="M12.7974 29.4777L12.8186 29.4773L14.1402 29.4428C14.5784 29.4313 14.9243 29.0664 14.9129 28.6279C14.9014 28.1897 14.5371 27.8443 14.0982 27.8551L12.7771 27.89C12.3389 27.9015 11.9927 28.266 12.0042 28.7045C12.0157 29.1355 12.3687 29.4777 12.7974 29.4777Z" fill="#018FFA"/>
<path d="M12.1355 26.3148C12.1991 26.3148 12.2636 26.3069 12.3284 26.2911L13.4911 26.0011C13.9166 25.895 14.1754 25.464 14.0691 25.0387C13.9631 24.6131 13.5325 24.3541 13.1069 24.4602L11.944 24.7502C11.5184 24.8563 11.2594 25.2873 11.3656 25.7126C11.4558 26.0738 11.7798 26.3148 12.1355 26.3148Z" fill="#018FFA"/>
</svg>
