<svg xmlns="http://www.w3.org/2000/svg" width="20.03" height="20.023" viewBox="0 0 20.03 20.023"><path d="M16,20.023a2.978,2.978,0,0,1-1.791-.593A3.018,3.018,0,0,1,13.18,16H10.82a3.019,3.019,0,0,1-1.029,3.43,3,3,0,0,1-3.582,0A3.016,3.016,0,0,1,5.18,16H5q-.069,0-.137,0a3,3,0,0,1-.133-6L3,3.24,2.94,2.76A1,1,0,0,0,1.969,2H1A1,1,0,0,1,1,0H1.94A3.007,3.007,0,0,1,4.76,2H19.034A.993.993,0,0,1,20,3.24L18.35,9.73A3,3,0,0,1,15.44,12H5a1,1,0,1,0,0,2H19a1,1,0,0,1,0,2h-.18a3.02,3.02,0,0,1-1.029,3.43A2.978,2.978,0,0,1,16,20.023ZM16,16a1,1,0,1,0,1,1A1,1,0,0,0,16,16ZM8,16a1,1,0,1,0,1,1A1,1,0,0,0,8,16ZM5.28,4h0l1.5,6h8.659a1,1,0,0,0,.971-.76L17.72,4H5.28Z" transform="translate(0 0)" fill="#42526e"/></svg>