<svg xmlns="http://www.w3.org/2000/svg" width="17.002" height="20.124" viewBox="0 0 17.002 20.124"><path d="M8.51,20.123a1.009,1.009,0,0,1-.71-.3l-5.3-5.31a8.426,8.426,0,0,1-2.46-6.83,8.5,8.5,0,0,1,16.92,0,8.426,8.426,0,0,1-2.46,6.83l-5.28,5.31A1.009,1.009,0,0,1,8.51,20.123ZM8.5,1.977A6.45,6.45,0,0,0,4.92,3.057,6.543,6.543,0,0,0,2.03,7.887a6.467,6.467,0,0,0,1.87,5.22l4.6,4.6,4.6-4.6a6.465,6.465,0,0,0,1.87-5.24,6.548,6.548,0,0,0-2.89-4.81A6.453,6.453,0,0,0,8.5,1.977Zm-2.814,9.6a1.03,1.03,0,0,1-.815-1.66,4.662,4.662,0,0,1,1.12-1,3.09,3.09,0,1,1,5,0,4.659,4.659,0,0,1,1.17,1.01,1,1,0,0,1-1.561,1.25,2.6,2.6,0,0,0-4.1,0A1.037,1.037,0,0,1,5.686,11.577ZM8.5,6.007H8.474a1.09,1.09,0,1,0,.027,0Z" transform="translate(0.001 0)" fill="#42526e"/></svg>