<svg xmlns="http://www.w3.org/2000/svg" width="21.97" height="17" viewBox="0 0 21.97 17"><path d="M20.97,17a1,1,0,0,1-1-1,7.023,7.023,0,0,0-4-6.38l-.13-.07-.39-.26a1,1,0,0,1,.049-1.7A2.995,2.995,0,0,0,14,2a1,1,0,1,1,0-2,5,5,0,0,1,3.74,8.32A9,9,0,0,1,21.97,16,1,1,0,0,1,20.97,17ZM15,17a1,1,0,0,1-1-1A6,6,0,1,0,2,16a1,1,0,0,1-2,0A8.014,8.014,0,0,1,4.7,8.72,4.918,4.918,0,0,1,3,5,5,5,0,1,1,13,5a4.917,4.917,0,0,1-1.7,3.72A8.018,8.018,0,0,1,16,16,1,1,0,0,1,15,17ZM8,2a3,3,0,1,0,3,3A3,3,0,0,0,8,2Z" transform="translate(0 0)" fill="#42526e"/></svg>