<svg xmlns="http://www.w3.org/2000/svg" width="21.809" height="18.007" viewBox="0 0 21.809 18.007"><path d="M10.9,18.007a3,3,0,1,1,3-3A3,3,0,0,1,10.9,18.007Zm0-4a1,1,0,1,0,1,1A1,1,0,0,0,10.9,14.007Zm4.3-2.238-.059,0a1.007,1.007,0,0,1-.7-.3,5,5,0,0,0-7.08,0,1,1,0,0,1-1.409-1.41,7.021,7.021,0,0,1,4.95-2.05h.024a7.016,7.016,0,0,1,4.976,2.05,1,1,0,0,1-.7,1.712ZM3.834,8.941a1,1,0,0,1-.71-1.714,11.008,11.008,0,0,1,15.56,0,1,1,0,0,1-.707,1.71H17.97a1,1,0,0,1-.707-.29,9,9,0,0,0-12.72,0A1,1,0,0,1,3.834,8.941ZM20.8,6.113a1.006,1.006,0,0,1-.71-.3,13,13,0,0,0-18.38,0A1,1,0,0,1,.294,4.4a15,15,0,0,1,21.22,0,1.006,1.006,0,0,1-.71,1.716Z" transform="translate(-0.001 0)" fill="#42526e"/></svg>